<svg xmlns="http://www.w3.org/2000/svg" xml:space="preserve" width="1500" height="1500" data-id="lg_LTPbKY1iK1mSjCNnOY" data-version="1"><path fill="#fff" stroke="transparent" d="M0 0h1500v1500H0z"/><g data-padding="20"><g transform="translate(-341.445 -345.165)scale(1.43142)"><path d="M631.677 951.996h.69l11.81-33.19h2.87v-1.5h-9.63v1.5h4.58l-9.57 27.06-10.38-27.06h4.59v-1.5h-12.96v1.5h3.44l10.89 28.95q1.27 3.38 2.18 3.9.58.34 1.49.34m35.72-35.26q-6.88 0-11.81 4.53-5.39 4.99-5.39 13.02 0 9.28 6.37 14.33 4.64 3.67 10.66 3.67 6.77 0 11.64-4.59 5.45-5.1 5.45-13.19 0-9.46-6.6-14.39-4.47-3.38-10.32-3.38m0 33.94q-8.31 0-10.66-8.88-.8-3.16-.8-7.29 0-13.64 8.25-15.82 1.44-.34 3.04-.34 11.3.11 11.35 15.94 0 12.49-6.93 15.53-1.95.86-4.25.86m22.35 1.04h14.05q0-1.26-.92-1.43-.28-.06-.57-.06h-3.04v-31.41h4.53v-1.5h-14.05v1.5h4.59v31.41h-4.59Zm47.77-2.64q0 2.41.69 2.75.4.17 1.09.17v-10.83h-1.38q-2.92 9.46-11.69 9.51-7.46 0-10.15-7.51-1.32-3.67-1.32-8.66 0-10.72 5.91-14.56 2.58-1.6 5.73-1.6 7.17 0 10.38 6.76.57 1.21.97 2.47h1.38l-.17-10.55q-1.27 0-1.55.8-.17.69-.17 2.24-1.67-1.67-5.68-2.7-2.64-.63-5.39-.63-9.06 0-13.87 6.71-3.33 4.76-3.33 10.95 0 7.51 4.64 12.61 4.93 5.28 12.85 5.28 5.79-.06 11.06-3.21m32.22-21.44h1.15l-.29-10.32h-26.43v1.5h4.59v31.41h-4.59v1.49h26.43l.29-10.32h-1.15l-.8 2.7q-1.43 4.87-4.24 5.85-.86.28-1.84.28h-9.17v-15.42h11.81v-1.66h-11.81v-14.33h9.17q4.13 0 5.91 5.56l.17.57Zm31.88 15.07q0-5.1-5.5-8.2-1.09-.57-6.71-3.03-5.1-2.18-6.42-4.48-.69-1.26-.69-2.69 0-3.84 3.73-5.33 1.6-.63 3.55-.63 4.82 0 7.34 3.26 1.66 2.24 1.61 5.45h1.72v-10.03q-1.38 0-1.61.86-.11.4-.11 1.09-4.08-2.24-9.18-2.24-6.19 0-9.63 3.44-2.29 2.41-2.29 5.62 0 4.82 5.39 7.85.97.52 6.53 2.93 5.16 2.29 6.54 4.64.74 1.32.74 2.87 0 4.01-3.9 5.79-1.83.8-4.07.8-8.77-.11-9.74-10.72h-1.72v11.87q1.37 0 1.6-.8.12-.46.12-1.67 4.41 2.93 10.03 2.93 6.59 0 10.21-3.56 2.46-2.52 2.46-6.02m34.4-25.97q-6.88 0-11.81 4.53-5.39 4.99-5.39 13.02 0 9.28 6.37 14.33 4.64 3.67 10.66 3.67 6.77 0 11.64-4.59 5.45-5.1 5.45-13.19 0-9.46-6.6-14.39-4.47-3.38-10.32-3.38m0 33.94q-8.31 0-10.66-8.88-.8-3.16-.8-7.29 0-13.64 8.25-15.82 1.43-.34 3.04-.34 11.29.11 11.35 15.94 0 12.49-6.94 15.53-1.94.86-4.24.86m22.36 1.04h16.4v-1.49h-6.88v-15.42h11.81v-1.66h-11.81v-14.33h9.17q4.13 0 5.91 5.56l.17.57.8 2.69h1.15l-.29-10.32h-26.43v1.5h4.59v31.41h-4.59Zm-206.34 47.67h15.76q0-1.26-.91-1.44-.29-.05-.58-.05h-3.9v-31.42h3.33q4.64 0 6.19 5.62 0 .23.06.34l.92 3.84h1.6l-.29-11.29h-28.32l-.29 11.29h1.61l.92-3.84q1.83-5.62 6.25-5.96h3.09v31.42h-5.44Zm25.05-34.4v1.49h4.59v20.01q.11 13.41 13.36 13.47 10.09 0 12.21-8.25.63-2.53.63-5.74v-19.49h4.59v-1.49h-11.18v1.49h4.58v19.84q0 11.12-8.25 11.98-.69.06-1.38.06-6.99 0-8.83-5.91-.8-2.58-.8-6.31v-19.66h4.53v-1.49Zm61.69 0v1.49h4.88v25.68l-21.79-27.17h-7.97v1.49h4.59v31.42h-4.59v1.49h11.75q0-1.26-.91-1.44-.29-.05-.58-.05h-3.38v-26.55l22.53 28.32 2.64-.57v-32.62h4.59v-1.49Zm14.61 34.4h14.05q0-1.26-.92-1.44-.29-.05-.57-.05h-3.04v-31.42h4.53v-1.49h-14.05v1.49h4.59v31.42h-4.59Zm44.22-9q0-5.11-5.51-8.2-1.09-.58-6.71-3.04-5.1-2.18-6.42-4.47-.68-1.26-.68-2.7 0-3.84 3.72-5.33 1.61-.63 3.56-.63 4.81 0 7.34 3.27 1.66 2.23 1.6 5.44h1.72v-10.03q-1.38 0-1.6.86-.12.4-.12 1.09-4.07-2.24-9.17-2.24-6.19 0-9.64 3.44-2.29 2.41-2.29 5.62 0 4.82 5.39 7.86.98.51 6.54 2.92 5.16 2.3 6.53 4.65.75 1.31.75 2.86 0 4.02-3.9 5.79-1.83.81-4.07.81-8.77-.12-9.75-10.73h-1.72v11.87q1.38 0 1.61-.8.11-.46.11-1.66 4.42 2.92 10.04 2.92 6.59 0 10.2-3.55 2.47-2.53 2.47-6.02m5.16 9h14.04q0-1.26-.91-1.44-.29-.05-.58-.05h-3.04v-31.42h4.53v-1.49h-14.04v1.49h4.58v31.42h-4.58Zm39.1 0h12.38q0-1.26-.91-1.44-.29-.05-.58-.05h-1.95l-13.13-32.91h-2.12l-12.84 32.91h-3.61v1.49h10.2q0-1.26-.92-1.44-.28-.05-.57-.05h-2.81l4.3-11.13h11.99l4.3 11.13h-3.73Zm-6.59-28.15 5.38 13.87h-10.72Z"/><rect width="440" height="112.07" x="143.837" y="310.756" fill="none" rx="0" ry="0" transform="translate(382.44 595.61)"/><path d="M807.927 687.266v-21.94h-10.97v10.97h-10.97l-10.97-10.97v-10.97l21.94-21.94 10.97-21.94v-21.94l-21.94-21.94v-10.97h10.97l21.94-21.94-10.97-10.97-21.94 10.97h-10.97v-13.054h-8.885l-8.996-8.886h-25.999l-32.91 43.88h10.97v76.79l-32.91 21.94 10.97 43.88 21.94 10.97v21.94l21.94 10.97 21.94 87.76 21.94-10.97 10.97-10.97v-10.97l-10.97-21.94v-10.97h10.97l43.88-32.91v-32.91Z"/><path stroke="transparent" stroke-width="1.4" d="M438.117 747.736v-37.1h16.26v4.95h-10.65v10.24h8.58v5.05h-8.58v11.86h12.31v5Zm32.14.5q-3.02 0-6-1.06t-4.29-2.37l2.67-4.8q1.06.96 3.31 2 2.25 1.03 4.31 1.03 2.68 0 4.37-1.26t1.69-3.48q0-1.72-.91-2.98t-2.22-2.09q-1.31-.84-3.73-2.05-2.88-1.41-3.94-2.12-4.9-3.28-4.9-9.08 0-4.8 3.18-7.35t8.03-2.55q5.2 0 8.83 2.98l-2.67 4.6q-.96-1.01-2.7-1.75-1.75-.73-3.71-.73-2.53 0-3.97 1.14-1.43 1.13-1.43 3.35 0 1.57.9 2.81.91 1.23 2.3 2.14t3.76 2.22q2.27 1.26 3.48 1.99 1.21.74 2.27 1.75 1.47 1.31 2.38 3.12.91 1.82.91 3.99 0 3.38-1.54 5.76-1.54 2.37-4.24 3.58t-6.14 1.21m23.53-.5v-32.15h-9.49v-4.95h24.68v4.95h-9.58v32.15Zm19.99.5q-1.51 0-2.57-1.03-1.06-1.04-1.06-2.55 0-1.57 1.03-2.6 1.03-1.04 2.6-1.04 1.56 0 2.6 1.04 1.03 1.03 1.03 2.6 0 1.51-1.03 2.55-1.04 1.03-2.6 1.03"/><rect width="107" height="55.37" x="310.337" y="339.116" fill="none" rx="0" ry="0" transform="translate(113.1 364.99)"/><path stroke="transparent" stroke-width="1.07" d="m976.987 747.736 12.46-15.6q2.37-3.18 3.96-5.9 1.59-2.73 1.59-5.05 0-2.83-1.49-4.32-1.48-1.49-4.46-1.49-2.73 0-4.39 1.52-1.67 1.51-2.78 3.68l-4.69-2.52q1.76-3.38 4.64-5.7 2.88-2.33 7.37-2.33 5.6 0 8.58 2.91 2.98 2.9 2.98 7.59 0 6.11-6.06 13.53l-6.86 8.68h14.38v5Zm45.37.74q-6.97 0-10.25-5.35t-3.28-13.93q0-8.83 3.18-14 3.18-5.18 10.35-5.18 13.47 0 13.47 19.18 0 8.73-3.28 14.01-3.28 5.27-10.19 5.27m0-5.15q4.14 0 5.73-3.96t1.59-10.17q0-6.51-1.57-10.29-1.56-3.79-5.75-3.79t-5.78 3.79q-1.59 3.78-1.59 10.29 0 14.13 7.37 14.13m19.88 4.41 12.47-15.6q2.37-3.18 3.96-5.9 1.59-2.73 1.59-5.05 0-2.83-1.49-4.32t-4.46-1.49q-2.73 0-4.4 1.52-1.66 1.51-2.77 3.68l-4.69-2.52q1.76-3.38 4.64-5.7 2.88-2.33 7.37-2.33 5.6 0 8.58 2.91 2.97 2.9 2.97 7.59 0 6.11-6.05 13.53l-6.87 8.68h14.39v5Zm48.25-.01v-9.29h-16.96l10.65-29.07 5.25 1.97-8.02 21.8h9.08l.31-8.43h5.6v8.43h5.15v5.3h-5.15v9.29Z"/><rect width="127.06" height="55.37" x="300.307" y="339.116" fill="none" rx="0" ry="0" transform="translate(673.58 364.98)"/></g><path fill="transparent" stroke="transparent" stroke-width="1.475" d="M250 376.106h1000v747.788H250z"/></g></svg>