<svg xmlns="http://www.w3.org/2000/svg" xml:space="preserve" width="1500" height="494" data-id="lg_J6BP7ybmRmjvqKwBL5" data-version="1"><g data-padding="20"><g transform="translate(10 7.485)scale(.9697)"><path fill="#fff" d="M637.535 427.655h.67l11.46-32.23h2.79v-1.44h-9.36v1.44h4.46l-9.3 26.28-10.07-26.28h4.45v-1.44h-12.58v1.44h3.34l10.58 28.11q1.22 3.29 2.11 3.79.56.33 1.45.33m34.68-34.22q-6.68 0-11.47 4.4-5.23 4.84-5.23 12.63 0 9.02 6.18 13.92 4.5 3.56 10.35 3.56 6.57 0 11.3-4.45 5.29-4.96 5.29-12.8 0-9.19-6.4-13.98-4.35-3.28-10.02-3.28m0 32.95q-8.07 0-10.36-8.63-.78-3.06-.78-7.06 0-13.25 8.02-15.37 1.39-.33 2.95-.33 10.97.11 11.02 15.47 0 12.14-6.73 15.09-1.9.83-4.12.83m21.7 1h13.63q0-1.22-.89-1.39-.28-.05-.55-.05h-2.95v-30.51h4.39v-1.44h-13.63v1.44h4.45v30.51h-4.45Zm46.38-2.56q0 2.34.67 2.68.39.16 1.06.16v-10.52h-1.34q-2.84 9.19-11.35 9.24-7.24 0-9.85-7.29-1.29-3.56-1.29-8.4 0-10.41 5.74-14.14 2.5-1.56 5.56-1.56 6.96 0 10.08 6.57.56 1.17.95 2.39h1.33l-.16-10.24q-1.23 0-1.51.78-.16.67-.16 2.17-1.62-1.62-5.52-2.62-2.56-.61-5.23-.61-8.79 0-13.47 6.51-3.23 4.62-3.23 10.63 0 7.3 4.51 12.25 4.79 5.12 12.47 5.12 5.62-.05 10.74-3.12m31.28-20.81h1.11l-.28-10.02h-25.66v1.44h4.45v30.51h-4.45v1.44h25.66l.28-10.01h-1.11l-.78 2.61q-1.39 4.73-4.12 5.68-.84.28-1.78.28h-8.91v-14.98h11.47v-1.61h-11.47v-13.92h8.91q4 0 5.73 5.4l.17.56Zm30.95 14.64q0-4.96-5.35-7.96-1.06-.56-6.51-2.95-4.95-2.12-6.23-4.35-.67-1.22-.67-2.61 0-3.73 3.62-5.18 1.55-.61 3.45-.61 4.67 0 7.12 3.17 1.62 2.17 1.56 5.29h1.67v-9.74q-1.34 0-1.56.83-.11.39-.11 1.06-3.95-2.17-8.91-2.17-6.01 0-9.35 3.34-2.22 2.34-2.22 5.45 0 4.68 5.23 7.63.94.5 6.34 2.84 5.01 2.23 6.35 4.51.72 1.28.72 2.78 0 3.9-3.78 5.62-1.78.78-3.95.78-8.52-.11-9.47-10.41h-1.67v11.53q1.34 0 1.56-.78.11-.45.11-1.62 4.29 2.84 9.74 2.84 6.41 0 9.91-3.45 2.4-2.45 2.4-5.84m33.39-25.22q-6.68 0-11.46 4.4-5.23 4.84-5.23 12.63 0 9.02 6.17 13.92 4.51 3.56 10.36 3.56 6.57 0 11.3-4.45 5.29-4.96 5.29-12.8 0-9.19-6.41-13.98-4.34-3.28-10.02-3.28m0 32.95q-8.07 0-10.35-8.63-.78-3.06-.78-7.06 0-13.25 8.02-15.37 1.39-.33 2.95-.33 10.96.11 11.02 15.47 0 12.14-6.74 15.09-1.89.83-4.12.83m21.71 1h15.92v-1.44h-6.68v-14.98h11.47v-1.61h-11.47v-13.92h8.91q4.01 0 5.73 5.4l.17.56.78 2.62h1.11l-.28-10.02h-25.66v1.44h4.46v30.51h-4.46Zm-199.47 47.66h15.31q0-1.23-.89-1.39-.28-.06-.56-.06h-3.78v-30.5h3.22q4.51 0 6.02 5.45 0 .22.05.34l.89 3.73h1.56l-.28-10.97h-27.5l-.27 10.97h1.55l.89-3.73q1.79-5.46 6.07-5.79h3.01v30.5h-5.29Zm24.33-33.4v1.45h4.45v19.42q.11 13.03 12.97 13.08 9.8 0 11.85-8.01.62-2.45.62-5.57v-18.92h4.45v-1.45h-10.85v1.45h4.45v19.26q0 10.8-8.02 11.63-.66.06-1.33.06-6.79 0-8.58-5.74-.77-2.5-.77-6.12v-19.09h4.39v-1.45Zm59.88 0v1.45h4.73v24.93l-21.15-26.38h-7.74v1.45h4.45v30.5h-4.45v1.45h11.41q0-1.23-.89-1.39-.28-.06-.55-.06h-3.29v-25.77l21.88 27.5 2.56-.56v-31.67h4.45v-1.45Zm14.2 33.4h13.64q0-1.23-.89-1.39-.28-.06-.56-.06h-2.95v-30.5h4.4v-1.45h-13.64v1.45h4.46v30.5h-4.46Zm42.91-8.74q0-4.96-5.34-7.96-1.06-.56-6.52-2.95-4.95-2.12-6.23-4.34-.67-1.23-.67-2.62 0-3.73 3.62-5.18 1.56-.61 3.45-.61 4.68 0 7.13 3.17 1.61 2.18 1.56 5.29h1.67v-9.74q-1.34 0-1.56.84-.11.39-.11 1.05-3.96-2.17-8.91-2.17-6.01 0-9.35 3.34-2.23 2.34-2.23 5.46 0 4.67 5.23 7.62.95.5 6.35 2.84 5.01 2.23 6.34 4.51.73 1.28.73 2.78 0 3.9-3.79 5.63-1.78.78-3.95.78-8.52-.12-9.46-10.41h-1.67v11.52q1.33 0 1.56-.78.11-.45.11-1.61 4.28 2.83 9.74 2.83 6.4 0 9.91-3.45 2.39-2.45 2.39-5.84m5.02 8.74h13.64q0-1.23-.89-1.39-.28-.06-.56-.06h-2.95v-30.5h4.4v-1.45h-13.64v1.45h4.45v30.5h-4.45Zm37.96 0h12.03q0-1.23-.89-1.39-.28-.06-.56-.06h-1.89l-12.75-31.95h-2.06l-12.47 31.95h-3.5v1.45h9.9q0-1.23-.89-1.39-.28-.06-.55-.06h-2.73l4.17-10.8h11.64l4.17 10.8h-3.62Zm-6.4-27.33 5.23 13.47h-10.4Z"/><rect width="440" height="112.07" x="132.145" y="-220.795" fill="none" rx="0" ry="0" transform="translate(400.5 602.82)"/><path fill="#fff" d="M805.215 169.665v-21.22h-10.61v10.61h-10.61l-10.61-10.61v-10.61l21.22-21.22 10.61-21.22v-21.22l-21.22-21.22v-10.61h10.61l21.22-21.22-10.61-10.61-21.22 10.61h-10.61V8.499h-8.594l-8.7-8.594h-25.146l-31.83 42.44h10.61v74.27l-31.83 21.22 10.61 42.44 21.22 10.61v21.22l21.22 10.61 21.22 84.88 21.22-10.61 10.61-10.61v-10.61l-10.61-21.22v-10.61h10.61l42.44-31.83v-31.83Z"/><path fill="#fff" stroke="transparent" stroke-width="1.4" d="M447.665 229.835v-36.02h15.78v4.8h-10.34v9.95h8.33v4.9h-8.33v11.51h11.96v4.86Zm31.21.48q-2.94 0-5.83-1.03t-4.16-2.31l2.6-4.65q1.02.93 3.21 1.93 2.18 1.01 4.18 1.01 2.6 0 4.24-1.23 1.64-1.22 1.64-3.38 0-1.66-.88-2.89-.88-1.22-2.15-2.03-1.28-.81-3.63-1.99-2.79-1.37-3.82-2.05-4.75-3.19-4.75-8.82 0-4.66 3.08-7.13 3.09-2.48 7.79-2.48 5.05 0 8.58 2.89l-2.6 4.46q-.93-.98-2.62-1.69t-3.6-.71q-2.45 0-3.85 1.1-1.39 1.11-1.39 3.26 0 1.52.88 2.72t2.23 2.08q1.34.89 3.65 2.16 2.2 1.22 3.38 1.94 1.17.71 2.2 1.69 1.42 1.27 2.31 3.03.88 1.77.88 3.87 0 3.29-1.5 5.59-1.49 2.3-4.11 3.48t-5.96 1.18m22.84-.48v-31.22h-9.21v-4.8h23.96v4.8h-9.31v31.22Zm19.4.48q-1.47 0-2.5-1.01-1.03-1-1.03-2.47 0-1.52 1.01-2.53 1-1 2.52-1t2.53 1q1 1.01 1 2.53 0 1.47-1 2.47-1.01 1.01-2.53 1.01"/><rect width="107" height="55.37" x="298.645" y="-192.435" fill="none" rx="0" ry="0" transform="translate(134.45 378.63)"/><path fill="#fff" stroke="transparent" stroke-width="1.07" d="m969.085 229.825 12.1-15.15q2.31-3.08 3.85-5.73 1.54-2.64 1.54-4.9 0-2.74-1.44-4.19-1.45-1.44-4.34-1.44-2.64 0-4.26 1.47t-2.7 3.57l-4.55-2.45q1.71-3.28 4.51-5.53 2.79-2.26 7.15-2.26 5.44 0 8.33 2.82t2.89 7.37q0 5.93-5.88 13.14l-6.66 8.42h13.96v4.86Zm44.05.73q-6.76 0-9.94-5.19-3.19-5.2-3.19-13.53 0-8.57 3.09-13.59 3.08-5.03 10.04-5.03 13.09 0 13.09 18.62 0 8.48-3.19 13.6-3.18 5.12-9.9 5.12m0-5q4.02 0 5.56-3.84 1.55-3.85 1.55-9.88 0-6.32-1.52-9.99-1.52-3.68-5.59-3.68-4.06 0-5.61 3.68-1.54 3.67-1.54 9.99 0 13.72 7.15 13.72m19.31 4.27 12.1-15.15q2.3-3.08 3.85-5.73 1.54-2.64 1.54-4.9 0-2.74-1.44-4.19-1.45-1.44-4.34-1.44-2.65 0-4.26 1.47-1.62 1.47-2.7 3.57l-4.56-2.45q1.72-3.28 4.51-5.53 2.8-2.26 7.16-2.26 5.44 0 8.33 2.82t2.89 7.37q0 5.93-5.88 13.14l-6.67 8.42h13.97v4.86Zm46.84 0v-9.02h-16.46l10.34-28.22 5.09 1.91-7.79 21.16h8.82l.3-8.18h5.44v8.18h4.99v5.15h-4.99v9.02Z"/><rect width="127.06" height="55.37" x="288.615" y="-192.435" fill="none" rx="0" ry="0" transform="translate(677.48 378.63)"/></g><path fill="transparent" stroke="transparent" d="M420 0h660v494H420z"/></g></svg>